<svg xmlns="http://www.w3.org/2000/svg" viewBox="0 0 100 100"><defs><style>.cls-1{fill:#bfc1c6;}.cls-2{fill:none;opacity:0.1;}</style></defs><title>React_gray</title><g id="Warstwa_2" data-name="Warstwa 2"><g id="Warstwa_1-2" data-name="Warstwa 1"><circle class="cls-1" cx="49.97" cy="49.96" r="6.06"/><path class="cls-1" d="M73,40c-1.17-.42-2.39-.85-3.66-1.22.32-1.27.58-2.55.79-3.77C71.22,28,70,23,66.6,21.12a6.56,6.56,0,0,0-3.4-.85c-3.72,0-8.45,2.76-13.23,7.38-4.78-4.62-9.5-7.38-13.22-7.38a6.53,6.53,0,0,0-3.4.85C30,23.08,28.73,28,29.84,35c.22,1.22.48,2.5.8,3.77A35.68,35.68,0,0,0,27,40C20.34,42.52,16.72,46,16.72,50s3.67,7.43,10.26,10c1.16.43,2.39.85,3.66,1.23-.32,1.27-.58,2.54-.8,3.77-1.11,7,.11,12,3.51,13.86a6.63,6.63,0,0,0,3.4.85c3.77,0,8.5-2.76,13.22-7.38,4.78,4.62,9.51,7.38,13.23,7.38a6.66,6.66,0,0,0,3.4-.85c3.4-2,4.62-6.91,3.5-13.86-.21-1.23-.47-2.5-.79-3.77,1.27-.38,2.49-.75,3.66-1.23,6.64-2.55,10.25-6,10.25-10S79.61,42.52,73,40Zm-7.86-16.2c2.18,1.28,2.92,5.21,2,10.79a34.4,34.4,0,0,1-.74,3.5,63.66,63.66,0,0,0-8.77-1.33,75.07,75.07,0,0,0-5.52-6.9C56,26,60,23.29,63.25,23.29A3.58,3.58,0,0,1,65.11,23.77Zm-6,31.5c-.95,1.7-2.07,3.4-3.24,5.1-2,.16-3.93.21-6,.21s-4,0-5.95-.21c-1.16-1.7-2.23-3.4-3.18-5.1S38.87,51.71,38,50c.85-1.75,1.81-3.56,2.82-5.31s2.07-3.4,3.24-5.1c2-.16,3.93-.21,6-.21s4,0,5.95.21c1.16,1.7,2.23,3.4,3.18,5.1s2,3.56,2.82,5.31C61.07,51.71,60.17,53.46,59.16,55.27Zm4.41-1.75c.8,1.86,1.43,3.66,2,5.47-1.81.42-3.72.74-5.74,1,.64-1,1.33-2.07,1.91-3.19S63,54.58,63.57,53.52ZM50,67.91C48.7,66.53,47.48,65,46.31,63.5c1.22.06,2.44.11,3.66.11s2.45,0,3.67-.11C52.47,65,51.25,66.53,50,67.91Zm-9.88-8a55.36,55.36,0,0,1-5.73-1c.58-1.75,1.22-3.61,2-5.47.58,1.07,1.16,2.18,1.8,3.24S39.46,58.88,40.09,59.94ZM36.38,46.4c-.8-1.86-1.44-3.67-2-5.47a58.16,58.16,0,0,1,5.73-1c-.63,1-1.32,2.07-1.91,3.19S37,45.34,36.38,46.4ZM50,32c1.28,1.38,2.5,2.86,3.67,4.4-1.22,0-2.44-.1-3.67-.1s-2.44,0-3.66.1C47.48,34.87,48.7,33.39,50,32ZM61.76,43.16,59.85,40c2,.27,3.93.59,5.74,1-.59,1.75-1.22,3.61-2,5.47C63,45.34,62.4,44.22,61.76,43.16Zm-28.94-8.6c-.91-5.58-.16-9.51,2-10.79a3.54,3.54,0,0,1,1.85-.48c3.19,0,7.18,2.61,11.16,6.54a68.87,68.87,0,0,0-5.52,6.9,73.7,73.7,0,0,0-8.77,1.33C33.24,36.84,33,35.67,32.82,34.56ZM19.7,50c0-2.5,3-5.15,8.34-7.12a30.76,30.76,0,0,1,3.4-1.11A78.36,78.36,0,0,0,34.62,50a67.16,67.16,0,0,0-3.18,8.23C24.11,56.12,19.7,52.93,19.7,50ZM34.84,76.14c-2.18-1.27-2.93-5.2-2-10.78a31.88,31.88,0,0,1,.74-3.5,63.22,63.22,0,0,0,8.77,1.32,75.26,75.26,0,0,0,5.52,6.91c-3.93,3.88-7.92,6.53-11.16,6.53A3.54,3.54,0,0,1,34.84,76.14ZM67.13,65.36c.9,5.58.16,9.51-2,10.78a3.58,3.58,0,0,1-1.86.48c-3.18,0-7.17-2.6-11.15-6.53a69,69,0,0,0,5.52-6.91,72.35,72.35,0,0,0,8.77-1.32C66.7,63.08,66.92,64.25,67.13,65.36Zm4.78-8.28a33,33,0,0,1-3.4,1.11,76.37,76.37,0,0,0-3.19-8.28,66.78,66.78,0,0,0,3.19-8.24C75.84,43.8,80.25,47,80.25,50,80.25,52.45,77.17,55.11,71.91,57.08Z"/><rect class="cls-2" width="100" height="100"/></g></g></svg>